<?xml version="1.0" encoding="UTF-8"?>
<svg id="Layer_1" data-name="Layer 1" xmlns="http://www.w3.org/2000/svg" viewBox="0 0 164.1 190.4">
  <defs>
    <style>
      .cls-1 {
        fill: #45ba75;
      }
    </style>
  </defs>
  <path class="cls-1" d="M152.82,111.13l-6.99-6.99c-.54-.54-1.42-.54-1.96,0l-11.01,11.01c-.54.54-.54,1.42,0,1.96l6.99,6.99-11.26,11.26h35.51v-35.52l-11.28,11.28Z"/>
  <path class="cls-1" d="M164.1,153.71h-18.35v11.71c0,3.67-2.97,6.64-6.64,6.64H24.98c-3.67,0-6.64-2.97-6.64-6.64v-30.47c0-3.18,1.24-6.17,3.49-8.42l49.87-49.87c2.61-2.61,6.05-4.31,9.73-4.47,4.02-.17,7.82,1.32,10.64,4.14l9.92,9.92c.54.54,1.42.54,1.96,0l11.01-11.01c.54-.54.54-1.42,0-1.96l-9.44-9.44c-5.96-5.96-13.89-9.69-22.31-9.99-9.12-.32-17.75,3.09-24.17,9.5L8.86,113.56c-5.71,5.71-8.86,13.31-8.86,21.39v30.47c0,13.77,11.21,24.98,24.98,24.98h114.14c13.8,0,24.98-11.19,24.98-24.98v-11.71Z"/>
  <path class="cls-1" d="M11.28,79.27l6.99,6.99c.54.54,1.42.54,1.96,0l11.01-11.01c.54-.54.54-1.42,0-1.96l-6.99-6.99,11.26-11.26H0v35.52l11.28-11.28Z"/>
  <path class="cls-1" d="M0,36.69h18.35v-11.71c0-3.67,2.97-6.64,6.64-6.64h114.14c3.67,0,6.64,2.97,6.64,6.64v30.47c0,3.18-1.24,6.17-3.49,8.42l-49.87,49.87c-2.61,2.61-6.05,4.31-9.73,4.47-4.02.17-7.82-1.32-10.64-4.14l-9.92-9.92c-.54-.54-1.42-.54-1.96,0l-11.01,11.01c-.54.54-.54,1.42,0,1.96l9.44,9.44c5.96,5.96,13.89,9.69,22.31,9.99,9.12.32,17.75-3.09,24.17-9.5l50.2-50.2c5.71-5.71,8.86-13.31,8.86-21.39v-30.47C164.1,11.21,152.9,0,139.12,0H24.98C11.18,0,0,11.19,0,24.98v11.71Z"/>
</svg>