<?xml version="1.0" encoding="UTF-8"?>
<svg id="Layer_1" data-name="Layer 1" xmlns="http://www.w3.org/2000/svg" viewBox="0 0 294.44 81.53">
  <defs>
    <style>
      .cls-1 {
        fill: #eae4d7;
      }
    </style>
  </defs>
  <polygon class="cls-1" points="125.19 0 109.89 40.79 94.59 0 70.73 0 70.73 81.53 87.44 81.53 87.44 28.53 103.43 71.17 116.34 71.17 132.33 28.53 132.33 81.53 149.05 81.53 149.05 0 125.19 0"/>
  <path class="cls-1" d="M166.18,81.53h16.71v-21.01h23.46v21.01h16.71V15.07c0-8.32-6.75-15.07-15.07-15.07h-26.75c-8.32,0-15.07,6.75-15.07,15.07v66.45ZM182.89,16.71h23.46v27.09h-23.46v-27.09Z"/>
  <path class="cls-1" d="M240.19,0v81.53h16.71v-21.01h22.46c8.32,0,15.07-6.75,15.07-15.07V15.07c0-8.32-6.75-15.07-15.07-15.07h-39.18ZM256.91,43.8v-27.09h20.82v27.09h-20.82Z"/>
  <path class="cls-1" d="M20.59,0v16.71h16.71v48.1h-20.59v-16.71H0v18.82c0,8.07,6.54,14.61,14.61,14.61h24.33c8.32,0,15.07-6.75,15.07-15.07V0H20.59Z"/>
</svg>