<?xml version="1.0" encoding="UTF-8"?>
<svg id="Layer_1" data-name="Layer 1" xmlns="http://www.w3.org/2000/svg" viewBox="0 0 225.08 300">
  <defs>
    <style>
      .cls-1 {
        fill: #45ba75;
      }

      .cls-2 {
        fill: #eae4d7;
      }
    </style>
  </defs>
  <g>
    <polygon class="cls-2" points="95.7 237.68 84 268.86 72.31 237.68 54.06 237.68 54.06 300 66.84 300 66.84 259.49 79.07 292.08 88.94 292.08 101.16 259.49 101.16 300 113.94 300 113.94 237.68 95.7 237.68"/>
    <path class="cls-2" d="M127.03,300h12.78v-16.06h17.93v16.06h12.78v-50.8c0-6.36-5.16-11.52-11.52-11.52h-20.44c-6.36,0-11.52,5.16-11.52,11.52v50.8ZM139.81,250.46h17.93v20.71h-17.93v-20.71Z"/>
    <path class="cls-2" d="M183.61,237.68v62.32h12.78v-16.06h17.17c6.36,0,11.52-5.16,11.52-11.52v-23.22c0-6.36-5.16-11.52-11.52-11.52h-29.95ZM196.39,271.16v-20.71h15.92v20.71h-15.92Z"/>
    <path class="cls-2" d="M15.74,237.68v12.78h12.78v36.77h-15.74v-12.78H0v14.38c0,6.17,5,11.17,11.17,11.17h18.6c6.36,0,11.52-5.16,11.52-11.52v-50.8H15.74Z"/>
  </g>
  <g>
    <path class="cls-1" d="M186.61,116.31l-7.31-7.31c-.57-.57-1.49-.57-2.05,0l-11.52,11.53c-.57.57-.57,1.49,0,2.05l7.31,7.31-11.78,11.78h37.17v-37.17l-11.81,11.81Z"/>
    <path class="cls-1" d="M198.42,160.88h-19.2v12.26c0,3.84-3.11,6.95-6.95,6.95H52.81c-3.84,0-6.95-3.11-6.95-6.95v-31.89c0-3.33,1.3-6.46,3.65-8.81l52.19-52.19c2.73-2.73,6.33-4.51,10.19-4.68,4.2-.18,8.18,1.38,11.14,4.33l10.38,10.38c.57.57,1.49.57,2.05,0l11.53-11.52c.57-.57.57-1.49,0-2.05l-9.88-9.88c-6.23-6.23-14.54-10.14-23.35-10.45-9.55-.33-18.58,3.23-25.29,9.95l-52.54,52.54c-5.98,5.98-9.27,13.93-9.27,22.39v31.89c0,14.42,11.73,26.15,26.15,26.15h119.46c14.44,0,26.15-11.71,26.15-26.15v-12.25Z"/>
    <path class="cls-1" d="M38.47,82.96l7.31,7.31c.57.57,1.49.57,2.05,0l11.52-11.53c.57-.57.57-1.49,0-2.05l-7.31-7.31,11.78-11.78H26.66v37.17l11.81-11.81Z"/>
    <path class="cls-1" d="M26.66,38.4h19.2v-12.26c0-3.84,3.11-6.95,6.95-6.95h119.46c3.84,0,6.95,3.11,6.95,6.95v31.89c0,3.33-1.3,6.46-3.65,8.81l-52.19,52.19c-2.73,2.73-6.33,4.51-10.19,4.68-4.2.18-8.18-1.38-11.14-4.33l-10.38-10.38c-.57-.57-1.49-.57-2.05,0l-11.53,11.52c-.57.57-.57,1.49,0,2.05l9.88,9.88c6.23,6.23,14.54,10.14,23.35,10.45,9.55.33,18.58-3.23,25.29-9.95l52.54-52.54c5.98-5.98,9.27-13.93,9.27-22.39v-31.89C198.42,11.73,186.69,0,172.27,0H52.81C38.37,0,26.66,11.71,26.66,26.15v12.25Z"/>
  </g>
</svg>